<svg xmlns="http://www.w3.org/2000/svg" xmlns:xlink="http://www.w3.org/1999/xlink" width="500" zoomAndPan="magnify" viewBox="0 0 375 374.999991" height="500" preserveAspectRatio="xMidYMid meet" version="1.0"><defs><g/><clipPath id="b56c410242"><path d="M 119.421875 94.796875 L 255.578125 94.796875 L 255.578125 230.957031 L 119.421875 230.957031 Z M 119.421875 94.796875 " clip-rule="nonzero"/></clipPath><clipPath id="0e41351bfc"><path d="M 187.5 94.796875 C 149.902344 94.796875 119.421875 125.277344 119.421875 162.875 C 119.421875 200.476562 149.902344 230.957031 187.5 230.957031 C 225.097656 230.957031 255.578125 200.476562 255.578125 162.875 C 255.578125 125.277344 225.097656 94.796875 187.5 94.796875 Z M 187.5 94.796875 " clip-rule="nonzero"/></clipPath><clipPath id="cc0e0fa84c"><path d="M 122.910156 98.289062 L 252.089844 98.289062 L 252.089844 227.464844 L 122.910156 227.464844 Z M 122.910156 98.289062 " clip-rule="nonzero"/></clipPath><clipPath id="7c4aa4ebc3"><path d="M 187.5 98.289062 C 151.828125 98.289062 122.910156 127.203125 122.910156 162.875 C 122.910156 198.546875 151.828125 227.464844 187.5 227.464844 C 223.171875 227.464844 252.089844 198.546875 252.089844 162.875 C 252.089844 127.203125 223.171875 98.289062 187.5 98.289062 Z M 187.5 98.289062 " clip-rule="nonzero"/></clipPath><clipPath id="68d405844f"><path d="M 151.246094 123.785156 L 223.996094 123.785156 L 223.996094 161 L 151.246094 161 Z M 151.246094 123.785156 " clip-rule="nonzero"/></clipPath><clipPath id="20e29e8091"><path d="M 157 169 L 218 169 L 218 201.785156 L 157 201.785156 Z M 157 169 " clip-rule="nonzero"/></clipPath><clipPath id="d62050c502"><path d="M 189.03125 152.457031 L 195.933594 152.457031 L 195.933594 159.355469 L 189.03125 159.355469 Z M 189.03125 152.457031 " clip-rule="nonzero"/></clipPath><clipPath id="96f3bcc3d3"><path d="M 179.066406 152.457031 L 185.96875 152.457031 L 185.96875 159.355469 L 179.066406 159.355469 Z M 179.066406 152.457031 " clip-rule="nonzero"/></clipPath><clipPath id="bd54c0f415"><path d="M 189.03125 162.527344 L 195.933594 162.527344 L 195.933594 169.425781 L 189.03125 169.425781 Z M 189.03125 162.527344 " clip-rule="nonzero"/></clipPath><clipPath id="3f6ec668b8"><path d="M 179.066406 162.527344 L 185.96875 162.527344 L 185.96875 169.425781 L 179.066406 169.425781 Z M 179.066406 162.527344 " clip-rule="nonzero"/></clipPath></defs><g clip-path="url(#b56c410242)"><g clip-path="url(#0e41351bfc)"><path fill="#ffffff" d="M 119.421875 94.796875 L 255.578125 94.796875 L 255.578125 230.957031 L 119.421875 230.957031 Z M 119.421875 94.796875 " fill-opacity="1" fill-rule="nonzero"/></g></g><g clip-path="url(#cc0e0fa84c)"><g clip-path="url(#7c4aa4ebc3)"><path fill="#ab7a5f" d="M 122.910156 98.289062 L 252.089844 98.289062 L 252.089844 227.464844 L 122.910156 227.464844 Z M 122.910156 98.289062 " fill-opacity="1" fill-rule="nonzero"/></g></g><g clip-path="url(#68d405844f)"><path fill="#ffffff" d="M 223.078125 157.882812 L 188.738281 124.460938 C 188.078125 123.820312 187.027344 123.820312 186.367188 124.460938 L 152.027344 157.882812 C 151.355469 158.539062 151.34375 159.613281 151.996094 160.285156 C 152.648438 160.960938 153.726562 160.972656 154.398438 160.320312 L 187.554688 128.050781 L 220.710938 160.320312 C 221.039062 160.640625 221.46875 160.800781 221.894531 160.800781 C 222.339844 160.800781 222.78125 160.628906 223.113281 160.285156 C 223.765625 159.613281 223.753906 158.539062 223.078125 157.882812 Z M 223.078125 157.882812 " fill-opacity="1" fill-rule="nonzero"/></g><g clip-path="url(#20e29e8091)"><path fill="#ffffff" d="M 215.605469 169.015625 C 214.667969 169.015625 213.90625 169.777344 213.90625 170.714844 L 213.90625 195.480469 C 213.90625 197.199219 212.507812 198.597656 210.792969 198.597656 L 164.316406 198.597656 C 162.597656 198.597656 161.203125 197.199219 161.203125 195.480469 L 161.203125 170.714844 C 161.203125 169.777344 160.441406 169.015625 159.5 169.015625 C 158.5625 169.015625 157.800781 169.777344 157.800781 170.714844 L 157.800781 195.480469 C 157.800781 199.074219 160.722656 201.996094 164.316406 201.996094 L 210.789062 201.996094 C 214.382812 201.996094 217.304688 199.074219 217.304688 195.480469 L 217.304688 170.714844 C 217.304688 169.777344 216.542969 169.015625 215.605469 169.015625 Z M 215.605469 169.015625 " fill-opacity="1" fill-rule="nonzero"/></g><path stroke-linecap="round" transform="matrix(0.75, 0, 0, 0.75, 161.864876, 129.930899)" fill="none" stroke-linejoin="miter" d="M 1.997873 1.998385 L 13.591624 1.998385 " stroke="#ffffff" stroke-width="4" stroke-opacity="1" stroke-miterlimit="4"/><path stroke-linecap="round" transform="matrix(0, -0.75, 0.75, 0, 171.060272, 141.938091)" fill="none" stroke-linejoin="miter" d="M 2.000788 1.997763 L 13.563288 1.997763 " stroke="#ffffff" stroke-width="4" stroke-opacity="1" stroke-miterlimit="4"/><path stroke-linecap="round" transform="matrix(0, -0.75, 0.75, 0, 162.107646, 150.005073)" fill="none" stroke-linejoin="miter" d="M 2.001556 2.002306 L 24.324474 2.002306 " stroke="#ffffff" stroke-width="4" stroke-opacity="1" stroke-miterlimit="4"/><g clip-path="url(#d62050c502)"><path fill="#ffffff" d="M 189.03125 152.457031 L 195.933594 152.457031 L 195.933594 159.355469 L 189.03125 159.355469 Z M 189.03125 152.457031 " fill-opacity="1" fill-rule="nonzero"/></g><g clip-path="url(#96f3bcc3d3)"><path fill="#ffffff" d="M 179.066406 152.457031 L 185.96875 152.457031 L 185.96875 159.355469 L 179.066406 159.355469 Z M 179.066406 152.457031 " fill-opacity="1" fill-rule="nonzero"/></g><g clip-path="url(#bd54c0f415)"><path fill="#ffffff" d="M 189.03125 162.527344 L 195.933594 162.527344 L 195.933594 169.425781 L 189.03125 169.425781 Z M 189.03125 162.527344 " fill-opacity="1" fill-rule="nonzero"/></g><g clip-path="url(#3f6ec668b8)"><path fill="#ffffff" d="M 179.066406 162.527344 L 185.96875 162.527344 L 185.96875 169.425781 L 179.066406 169.425781 Z M 179.066406 162.527344 " fill-opacity="1" fill-rule="nonzero"/></g><g fill="#ab7a5f" fill-opacity="1"><g transform="translate(86.650713, 263.87597)"><g><path d="M 15.589844 -19.222656 L 11.207031 -19.222656 L 11.207031 -11.792969 L 6.128906 -11.792969 L 6.128906 -19.222656 L 1.746094 -19.222656 L 1.746094 0 L 6.128906 0 L 6.128906 -7.410156 L 11.207031 -7.410156 L 11.207031 0 L 15.589844 0 Z M 15.589844 -19.222656 "/></g></g></g><g fill="#ab7a5f" fill-opacity="1"><g transform="translate(106.337215, 263.87597)"><g><path d="M 16.636719 -19.222656 L 12.257812 -19.222656 L 12.257812 -8.109375 C 12.257812 -4.894531 11.277344 -3.960938 9.132812 -3.960938 C 6.992188 -3.960938 6.011719 -4.894531 6.011719 -8.109375 L 6.011719 -19.222656 L 1.632812 -19.222656 L 1.632812 -6.828125 C 1.632812 -2.074219 4.242188 0.347656 9.132812 0.347656 C 14.027344 0.347656 16.636719 -2.074219 16.636719 -6.828125 Z M 16.636719 -19.222656 "/></g></g></g><g fill="#ab7a5f" fill-opacity="1"><g transform="translate(126.978887, 263.87597)"><g><path d="M 1.746094 0 L 6.128906 0 L 6.128906 -9.878906 L 18.199219 0 L 18.199219 -19.222656 L 13.820312 -19.222656 L 13.773438 -9.320312 L 1.746094 -19.222656 Z M 1.746094 0 "/></g></g></g><g fill="#ab7a5f" fill-opacity="1"><g transform="translate(149.27464, 263.87597)"><g><path d="M 19.644531 -10.765625 L 10.441406 -10.765625 L 11.230469 -7.386719 L 15.191406 -7.386719 C 15.191406 -5.035156 13.121094 -3.683594 11.023438 -3.683594 C 8.320312 -3.683594 6.128906 -6.339844 6.128906 -9.601562 C 6.128906 -12.933594 8.320312 -15.613281 11.023438 -15.613281 C 12.722656 -15.613281 14.191406 -14.9375 15.308594 -13.144531 L 18.175781 -16.289062 C 16.5 -18.316406 14.144531 -19.574219 10.765625 -19.574219 C 5.359375 -19.574219 1.398438 -15.125 1.398438 -9.601562 C 1.398438 -4.101562 5.59375 0.347656 10.765625 0.347656 C 13.539062 0.347656 15.867188 -0.417969 17.476562 -2.167969 L 17.382812 -0.792969 L 19.644531 0 Z M 19.644531 -10.765625 "/></g></g></g><g fill="#ab7a5f" fill-opacity="1"><g transform="translate(172.665355, 263.87597)"><g/></g></g><g fill="#ab7a5f" fill-opacity="1"><g transform="translate(178.886214, 263.87597)"><g><path d="M 5.871094 -10.625 L 5.871094 -15.730469 C 8.414062 -15.730469 10.441406 -15.285156 10.441406 -13.164062 C 10.441406 -10.90625 8.015625 -10.671875 5.871094 -10.625 Z M 1.492188 -19.222656 L 1.492188 0 L 5.871094 0 L 5.871094 -7.128906 C 8.480469 -7.128906 15.054688 -7.386719 15.054688 -13.304688 C 15.054688 -16.242188 13.144531 -19.109375 8.503906 -19.222656 Z M 1.492188 -19.222656 "/></g></g></g><g fill="#ab7a5f" fill-opacity="1"><g transform="translate(197.803909, 263.87597)"><g><path d="M 15.589844 -19.222656 L 11.207031 -19.222656 L 11.207031 -11.792969 L 6.128906 -11.792969 L 6.128906 -19.222656 L 1.746094 -19.222656 L 1.746094 0 L 6.128906 0 L 6.128906 -7.410156 L 11.207031 -7.410156 L 11.207031 0 L 15.589844 0 Z M 15.589844 -19.222656 "/></g></g></g><g fill="#ab7a5f" fill-opacity="1"><g transform="translate(217.490412, 263.87597)"><g><path d="M 16.636719 -19.222656 L 12.257812 -19.222656 L 12.257812 -8.109375 C 12.257812 -4.894531 11.277344 -3.960938 9.132812 -3.960938 C 6.992188 -3.960938 6.011719 -4.894531 6.011719 -8.109375 L 6.011719 -19.222656 L 1.632812 -19.222656 L 1.632812 -6.828125 C 1.632812 -2.074219 4.242188 0.347656 9.132812 0.347656 C 14.027344 0.347656 16.636719 -2.074219 16.636719 -6.828125 Z M 16.636719 -19.222656 "/></g></g></g><g fill="#ab7a5f" fill-opacity="1"><g transform="translate(238.132084, 263.87597)"><g/></g></g><g fill="#ab7a5f" fill-opacity="1"><g transform="translate(244.352943, 263.87597)"><g><path d="M 12.839844 -19.222656 L 8.785156 -19.222656 L 1.046875 0 L 5.753906 0 L 7.152344 -3.84375 L 14.472656 -3.84375 L 15.914062 0 L 20.621094 0 Z M 12.980469 -7.691406 L 8.644531 -7.691406 L 10.789062 -13.28125 Z M 12.980469 -7.691406 "/></g></g></g><g fill="#ab7a5f" fill-opacity="1"><g transform="translate(268.395972, 263.87597)"><g><path d="M 1.746094 0 L 6.128906 0 L 6.128906 -9.878906 L 18.199219 0 L 18.199219 -19.222656 L 13.820312 -19.222656 L 13.773438 -9.320312 L 1.746094 -19.222656 Z M 1.746094 0 "/></g></g></g></svg>